<svg xmlns="http://www.w3.org/2000/svg" width="394" height="296" viewBox="0 0 394 296"><defs><style>.a,.al,.r{fill:#f7f2f5}.a,.an,.ar,.u,.v,.y,.z{stroke:#7f6371}.a,.aa,.ab,.ac,.ae,.al,.am,.an,.ao,.ap,.aq,.ar,.as,.at,.d,.e,.f,.h,.q,.t,.u,.v,.x,.y,.z{stroke-linecap:round;stroke-linejoin:round}.a,.aa,.ac,.ae,.ap,.aq,.as,.at,.d,.e,.f,.h,.o,.p,.q,.u,.v,.y,.z{stroke-width:2px}.b{fill:#ecebec}.c{fill:#ceb797}.ae,.am,.an,.ao,.ar,.at,.d,.e,.f,.h,.p,.q,.t,.u,.x{fill:none}.ap,.d,.e,.q{stroke:#8e7c69}.d,.h,.j,.m{opacity:.2}.e,.f,.l,.n{opacity:.4}.f,.h{stroke:#e5ccae}.g,.k,.l,.m,.o{fill:#8e7c69}.g{opacity:.1}.i{fill:#e5ccae}.o,.p{stroke:#726051;stroke-miterlimit:10}.s{clip-path:url(#a)}.am,.t{stroke:#fff}.t{stroke-width:8px}.ac,.ah,.ap,.v{fill:#ffdb6d}.w{clip-path:url(#b)}.al,.ao,.x{stroke:#e5e0e3}.x{stroke-width:6px}.aa,.y{fill:#fff}.ab,.z{fill:#d2c7cc}.aa,.ab,.ae{stroke:#d2c7cc}.ac{stroke:#dba758}.ad{fill:#fff3ce}.af,.aq{fill:#ff7e6d}.ag{fill:#bf4e45}.ai,.as{fill:#27cba4}.aj{fill:#189675}.ak{clip-path:url(#c)}.al,.ao{stroke-width:12px}.am{stroke-width:22px}.an{stroke-width:16px}.aq{stroke:#bf4e45}.ar{stroke-width:3px}.as,.at{stroke:#189675}</style><clipPath id="a"><rect class="a" x="31" y="4" width="332" height="240" rx="6" ry="6"/></clipPath><clipPath id="b"><path class="a" d="M75 32h244a6 6 0 0 1 6 6v18H69V38a6 6 0 0 1 6-6z"/></clipPath><clipPath id="c"><path class="a" d="M18.333 236h357.334a5.333 5.333 0 0 1 5.333 5.333A10.667 10.667 0 0 1 370.333 252H23.667A10.667 10.667 0 0 1 13 241.333 5.333 5.333 0 0 1 18.333 236z"/></clipPath></defs><title>introduction-394</title><rect class="b" x="10" y="268" width="376" height="28" rx="8" ry="8"/><path class="c" d="M392.898 280.025q.007-.12.005-.24c-.097-6.377-.197-12.754-.074-19.132.03-1.5.045-3.036.064-4.594a4.003 4.003 0 0 0-3.999-4.059H5a4 4 0 0 0-4 4v24a4 4 0 0 0 4 4h383.896a4.012 4.012 0 0 0 3.993-3.82z"/><path class="d" d="M3.102 259.49l218.479-5.547M2.731 275.473l165.745-3.168M3.65 281.839l219.936-8.696"/><path class="e" d="M244.623 256.021c50.125.779 97.19 1.278 147.374 2.379"/><path class="f" d="M169.975 279.746l80.203 3.2"/><path class="d" d="M196.045 277.01l80.204 3.2M304.793 281.346c30.057-1.346 56.786-2.177 87.204-2.946M81.195 262.391l103.339 3.692"/><path class="g" d="M22.47 283.833c9.448-3.523 5.298-4.963 6.639-10.276 1.371-5.435 5.035-5.04 8.03-10.346 2.997-5.305 10.766-6.51 4.46-11.211H5c-2.21 0-4 1.433-4 3.2v25.494c0 1.745 1.742 3.169 3.923 3.2 6.242.088 16.812.213 17.547-.061zM371.53 283.833c-9.448-3.523-5.298-4.963-6.639-10.276-1.371-5.435-5.035-5.04-8.03-10.346-2.997-5.305-10.766-6.51-4.46-11.211H389c2.21 0 4 1.433 4 3.2v25.494c0 1.745-1.742 3.169-3.923 3.2-6.242.088-16.812.213-17.547-.061z"/><path class="h" d="M78.708 281.277l90.229-1.6"/><path class="f" d="M2.025 261.1l222.035-2.966M156.405 262.648l223.035-2.967"/><path class="h" d="M1.981 271.848l156.476-.913"/><path class="i" d="M392.9 255.502a3.117 3.117 0 0 0-3.108-3.17L5.01 252.003C2.796 252.001 1 253.433 1 255.2l391.9.334z"/><path class="i" d="M78.552 253.782c.923.228 2.074.488 3.471.784 32.262 6.836 38.31 3.705 76.235 4.712 29.997.796 30.538-1.13 60.62-.93s-70.17.186-40.087.386c30.078.2 30.241-2.619 60.32-2.42 29.038.194 29.285 2.77 55.322.456l-9.437-2.878z"/><path class="e" d="M82.206 283.74l79.87-1.867"/><path class="d" d="M138.421 275.388l168.428-3.2M138.391 281.827l223.568-8.8"/><path class="f" d="M308.347 279.746c29.216.17 53.443.415 82.648 1.054"/><path class="d" d="M334.418 276.267c20.661.797 36.9.356 57.58.533M219.568 262.39c59.14.81 112.904 2.412 172.43 3.21"/><path class="h" d="M217.081 281.277l90.229-1.6"/><path class="f" d="M139.397 260.984l223.036-2.967"/><path class="h" d="M139.353 271.732l157.476-.914"/><path class="e" d="M220.579 283.74l79.869-1.867"/><path class="j k" d="M165.443 253.027l34.27 4.454c25.057 1.651 35.296.926 73.088 1.16"/><path class="l" d="M393 277.277s-33.544-.556-51.92-.445c-84.78.514-78.47 1.142-165.32 1.377-84.904.23-7.536-.482-63.828 1.138-6.012.173-64.126 3.853-64.126 3.853H393z"/><path class="m" d="M369 267.676c-.001-1.792-1.85-3.235-4.096-3.214-28.612.268-47.136.5-111.572.624-121.43.234-54.073-.49-134.58 1.16-8.598.177-92.837-14.374-91.713 3.927.408 6.65 156.637 3.483 337.988.805 2.208-.033 3.974-1.474 3.973-3.237z"/><path class="n k" d="M19.789 275.382c-5.534.754-6.7-1.657-8.814-6.827-1.638-4.004-1.057-7.402 3.23-7.986 5.534-.754 4.613 3.347 7.91 7.856 2.983 4.082 1.96 6.373-2.326 6.957z"/><circle class="o" cx="16.987" cy="268.317" r="4"/><path class="p" d="M12.987 268.317h8"/><path class="n k" d="M386.875 270.328c-2.468 5.078-6.633 6.057-12.167 4.938a6.334 6.334 0 0 1-4.614-9.123c2.468-5.078 5.363-6.247 11.01-6.307 5.642-.06 7.683 6.558 5.771 10.492z"/><circle class="o" cx="377.987" cy="268.683" r="4"/><path class="p" d="M374 268.645h8"/><rect class="q" x="1" y="252" width="392" height="32" rx="4" ry="4"/><g><rect class="r" x="31" y="4" width="332" height="240" rx="6" ry="6"/><path class="s t" d="M31 10a5.954 5.954 0 0 1 5.906-6h320.188A5.954 5.954 0 0 1 363 10"/><rect class="u" x="31" y="4" width="332" height="240" rx="6" ry="6"/></g><path class="v" d="M43 16h308v208H43z"/><g><path class="r" d="M75 32h244a6 6 0 0 1 6 6v18H69V38a6 6 0 0 1 6-6z"/><g class="w"><path class="t" d="M69 38a5.94 5.94 0 0 1 5.878-6h244.244A5.94 5.94 0 0 1 325 38"/><path class="x" d="M325 56H69"/></g><path class="u" d="M75 32h244a6 6 0 0 1 6 6v18H69V38a6 6 0 0 1 6-6z"/></g><path class="y" d="M93 56h184v148H93z"/><path class="a" d="M69 56h24v148H75a6 6 0 0 1-6-6V56zM277 56h48v142a6 6 0 0 1-6 6h-42V56z"/><path class="u" d="M69.75 82h22.558M69.75 106h22.558M69.75 131h22.558M69.75 155h22.558M70 178h22"/><g><path class="z" d="M277 56h48v8h-48z"/><path class="u" d="M282 60h16"/></g><g><path class="z" d="M277 104h48v8h-48z"/><path class="u" d="M282 108h16"/></g><g><path class="z" d="M277 168h48v8h-48z"/><path class="u" d="M282 172h16"/></g><path class="aa" d="M285 120h16v8h-16zM301 120h16v8h-16zM285 136h16v8h-16zM301 136h16v8h-16zM285 152h16v8h-16zM301 152h16v8h-16z"/><g><path class="aa" d="M285 72h32v8h-32zM309 72v8"/><path class="ab" d="M314.195 75.293l-1.387 1.414-1.387-1.414h2.774z"/></g><g><path class="aa" d="M285 88h32v8h-32zM309 88v8"/><path class="ab" d="M314.195 91.293l-1.387 1.414-1.387-1.414h2.774z"/></g><g><path class="aa" d="M285 184h32v8h-32zM309 184v8"/><path class="ab" d="M314.195 187.293l-1.387 1.414-1.387-1.414h2.774z"/></g><g><path class="q" d="M180.231 94h14"/><path class="aa" d="M140 116h88v76h-88z"/><path class="ac" d="M140 68h88v48h-88z"/><path class="ad" d="M174.969 94.815c-2.592-.877-3.778-2.543-3.778-7.26 0-2.278-1.598-2.222-1.598-2.222l-.005.002a1.115 1.115 0 0 0-.53-.862 14.267 14.267 0 0 0-3.48-.473c-.412 0-.4.351-.221.946.095.313.406 1.276 1.184 1.276.594.419 0 1.099 0 1.099l-2.324.53-.727 1.186-4.214 1.49a3.034 3.034 0 0 0 1.408 2.302c1.355.825 4.84.8 4.84.8a7.667 7.667 0 0 1 .727 6.371 14.199 14.199 0 0 1 8.718-5.185z"/><path class="q" d="M174.969 94.815c-2.592-.877-3.778-2.543-3.778-7.26 0-2.278-1.598-2.222-1.598-2.222M167.432 85.987a1.774 1.774 0 0 0 .523-.487"/><path class="q" d="M169.625 85.5c-.084-.498-.245-.892-.568-1.027a14.266 14.266 0 0 0-3.48-.473c-.411 0-.4.351-.22.946.094.313.406 1.276 1.184 1.276a1.701 1.701 0 0 0 .891-.235"/><path class="q" d="M166.25 100a7.668 7.668 0 0 0-.726-6.37s-3.485.024-4.84-.801a3.035 3.035 0 0 1-1.408-2.302l4.214-1.49.727-1.185 2.324-.531s.594-.68 0-1.099M180.231 89h24"/><g><path class="ae" d="M153 173h24M153 178h14"/></g><path class="q" d="M180.231 94h14"/></g><g><circle class="af" cx="81" cy="44" r="4"/><path class="ag" d="M81 49a5 5 0 1 1 5-5 5.006 5.006 0 0 1-5 5zm0-8a3 3 0 1 0 3 3 3.003 3.003 0 0 0-3-3z"/></g><g><circle class="ah" cx="94" cy="44" r="4"/><path class="k" d="M94 49a5 5 0 1 1 5-5 5.006 5.006 0 0 1-5 5zm0-8a3 3 0 1 0 3 3 3.003 3.003 0 0 0-3-3z"/></g><g><circle class="ai" cx="107" cy="44" r="4"/><path class="aj" d="M107 49a5 5 0 1 1 5-5 5.006 5.006 0 0 1-5 5zm0-8a3 3 0 1 0 3 3 3.003 3.003 0 0 0-3-3z"/></g><g><path class="r" d="M18.333 236h357.334a5.333 5.333 0 0 1 5.333 5.333A10.667 10.667 0 0 1 370.333 252H23.667A10.667 10.667 0 0 1 13 241.333 5.333 5.333 0 0 1 18.333 236z"/><g class="ak"><path class="al" d="M379.278 250.371A40.31 40.31 0 0 1 369.143 252H24.857a90.589 90.589 0 0 1-10.157-.914"/><path class="t" d="M13 240c0-2.21 2.667-4 5.956-4h356.088c3.29 0 5.956 1.79 5.956 4"/><path class="am" d="M167 236h64"/><path class="an" d="M167 236h64"/><path class="ao" d="M167 236h64"/></g><path class="u" d="M18.333 236h357.334a5.333 5.333 0 0 1 5.333 5.333A10.667 10.667 0 0 1 370.333 252H23.667A10.667 10.667 0 0 1 13 241.333 5.333 5.333 0 0 1 18.333 236z"/></g><g><path class="ap" d="M80 190h6v6h-6z"/><path class="aq" d="M76 186h6v6h-6z"/></g><g><path class="ar" d="M85.462 170.192l-5.885-6"/><circle class="y" cx="80" cy="165" r="4"/></g><circle class="aq" cx="81" cy="143" r="4"/><path class="ap" d="M76 114h10v8H76z"/><path class="aq" d="M86 67.333L76 64l3.333 10 3.334-3.333L86 67.333z"/><g><path class="as" d="M79 90h4l2 4-4 6-4-6 2-4zM77 88h8v2h-8z"/><path class="at" d="M81 100v-6"/></g></svg>