<?xml version='1.0' encoding='utf-8'?>
<svg xmlns="http://www.w3.org/2000/svg" version="1.1" width="600px" height="976px" viewBox="0 0 600 976"> <g id="layer1"> <g style="fill:rgb(0,0,0); fill-opacity:1.0; stroke-linejoin: miter"> <path d="M331.69025,421.85803C331.66263,421.85803,331.6372,421.8723,331.62283,421.9029C331.59436,421.97897,331.64987,422.04834,331.73138,422.04834C331.7378,422.04834,331.7444,422.0479,331.7511,422.04703C331.7971,422.04092,331.81787,422.00177,331.80087,421.95206C331.7803,421.89178,331.7327,421.85803,331.69025,421.85803 Z M329.00558,442.98627C329.0166,442.9888,329.03815,443.01425,329.06995,443.0668C329.11655,443.1438,329.1492,443.23303,329.1379,443.26575C329.13342,443.27316,329.12808,443.27676,329.12207,443.27676C329.1053,443.27676,329.0834,443.24863,329.06134,443.1979C329.0056,443.06976,328.98648,442.99084,329.0023,442.98627 Z M333.22507,472.58936C333.22534,472.58936,333.22562,472.58936,333.22592,472.5894L333.22433,472.5894C333.22455,472.58936,333.2248,472.58936,333.22507,472.58936 Z M333.2268,472.5895C333.2493,472.5932,333.3576,472.6593,333.46838,472.74414C333.72363,472.94418,333.78595,473.06076,333.7201,473.23065C333.67618,473.353,333.51337,473.43945,333.37625,473.43945C333.32373,473.43945,333.275,473.4268,333.23813,473.39856C333.05975,473.26654,333.0507,472.61453,333.22348,472.5895 Z M342.08194,455.197C342.26752,455.197,342.71506,455.42993,343.15048,455.7502C343.90063,456.31094,344.33652,456.8146,344.68848,457.54767C345.04553,458.28012,345.13623,458.61118,345.0499,458.8618C344.96356,459.11234,344.7826,459.3547,344.60883,459.45572C344.45926,459.5431,344.04886,460.055,343.82724,460.4223C343.75974,460.5404,343.65228,460.78864,343.58917,460.97894C343.52737,461.1795,343.37292,461.46512,343.22296,461.66693C342.88376,462.12775,342.57553,462.7041,342.4029,463.20532C342.3285,463.4283,342.16678,463.77722,342.04303,463.98077C341.92438,464.18365,341.73514,464.5207,341.62808,464.73242C341.51523,464.93973,341.31778,465.21542,341.18387,465.34238C341.0507,465.47446,340.8588,465.71304,340.75653,465.8826C340.65356,466.04697,340.45816,466.33798,340.31705,466.52823C340.18106,466.71783,339.93015,467.0994,339.75964,467.38187C339.59363,467.65863,339.28616,468.08417,339.0885,468.31833C338.88638,468.55823,338.69583,468.80704,338.674,468.87753C338.64703,468.94867,338.54822,469.06577,338.45483,469.14572C338.3608,469.22055,338.2122,469.43268,338.12787,469.6205C337.93414,470.04132,337.96826,469.9848,337.59842,470.52777C337.36652,470.86844,337.18912,471.14352,337.05243,471.37665L337.04904,471.37665L336.6928,471.84277L336.6962,471.84277C336.58502,472.06494,336.4569,472.2767,336.30948,472.48807L336.31284,472.48807Q336.29504,472.74014,336.2489,472.7929Q336.22067,472.8498,336.09113,472.8498Q336.06894,472.8498,336.0438,472.8481L336.04044,472.8481C336.00732,472.88983,335.97345,472.93173,335.93875,472.97394C335.5398,473.4726,334.79065,475.33328,334.16202,477.26526Q334.05237,477.26337,333.9447,477.2628L333.94138,477.2628C333.91006,477.15515,333.83716,476.96127,333.7595,476.78122C333.5878,476.38812,333.46616,476.01956,333.40778,475.7362C333.3932,475.66537,333.3368,475.4753,333.27866,475.31143C333.15662,474.9793,333.07178,474.14322,333.14136,473.96243C333.1683,473.89127,333.2586,473.8273,333.3938,473.78857C333.72864,473.68698,334.10513,473.42917,334.1689,473.24393C334.26715,472.96573,334.06213,472.55624,333.67578,472.26956C333.56073,472.18604,333.40692,472.04532,333.3385,471.96082C333.15207,471.73083,333.15784,471.30377,333.35168,470.649C333.50327,470.14545,334.41083,468.1692,334.49768,468.15768C334.52322,468.1543,334.58185,468.04773,334.63336,467.92657C334.76505,467.5868,335.42056,466.25745,335.50406,466.14233C335.5439,466.09027,335.57733,466.02863,335.5753,466.01334C335.56516,465.9367,336.109,464.9809,336.38168,464.60678C336.53915,464.38312,336.7059,464.11154,336.75876,464.00058C336.85428,463.77997,337.08942,463.51477,337.3463,463.33514C337.42374,463.2827,337.49612,463.2564,337.56406,463.2564C337.68024,463.2564,337.78336,463.33344,337.8761,463.48843C338.0302,463.7488,338.40662,464.07834,338.6919,464.19128C338.80902,464.23743,338.88998,464.2591,338.97092,464.2591C339.02646,464.2591,339.082,464.2489,339.14923,464.2294C339.4657,464.14587,339.69635,463.9645,339.76633,463.74728C339.83698,463.5352,340.03354,463.41034,340.353,463.3888C340.86282,463.35233,341.04196,463.29218,341.17487,463.11856C341.30338,462.9508,341.32303,462.66748,341.2127,462.61972C341.18515,462.6078,341.13647,462.51538,341.10828,462.42038C341.07495,462.32602,340.98282,462.14072,340.8988,462.0167C340.8148,461.8927,340.67874,461.65082,340.59372,461.48016C340.40228,461.09488,340.31244,460.96637,340.08,460.7425C339.97247,460.6372,339.9078,460.54178,339.93,460.51288C339.95215,460.48395,340.20926,460.42383,340.49915,460.37497C341.1248,460.27124,341.31964,460.1726,341.51093,459.85092L341.64285,459.63068L341.51697,459.46542C341.44214,459.3714,341.29034,459.24597,341.178,459.1829C341.065,459.11475,340.8492,458.977,340.70013,458.872C340.5503,458.7618,340.36853,458.64557,340.3018,458.61282C339.9842,458.4522,339.42258,458.0588,339.22552,457.86664C339.05096,457.68707,339.01016,457.6145,338.9882,457.4095C338.95264,457.10226,339.08798,456.9076,339.51007,456.68005C339.6705,456.59637,339.8449,456.50043,339.8984,456.47253C339.9519,456.44467,340.1505,456.33514,340.33517,456.2379C340.81207,455.9927,341.29965,455.70978,341.32486,455.6648C341.3501,455.61987,342.0073,455.2052,342.05838,455.19843C342.06567,455.19745,342.07355,455.197,342.08194,455.197 Z M305.7563,498.7927C305.96664,498.7927,306.06967,499.14474,306.06967,499.84018C306.06967,500.6117,305.70126,501.07297,305.14572,501.07297C304.98816,501.07297,304.8156,501.03592,304.6321,500.95825C304.24878,500.83047,304.2807,500.60684,304.88766,499.71237C305.27234,499.09683,305.5607,498.7927,305.7563,498.7927 Z M308.56137,500.44714C308.88083,500.44714,309.29614,500.60684,309.51978,500.83047C310.0628,501.3736,309.99893,502.36386,309.42395,502.36386C309.16837,502.36386,308.7531,501.91656,308.46558,501.4055C307.9864,500.51102,308.0183,500.44714,308.56137,500.44714 Z M248.16835,419.33167C248.15262,419.3332,248.13666,419.3351,248.12045,419.33734C247.92877,419.36932,247.00235,419.4971,246.10788,419.59296C244.73422,419.75266,244.19115,420.04016,243.10501,421.0624C241.60355,422.53192,239.39932,425.5348,238.31317,427.61127C237.1951,429.7836,237.32286,433.77673,239.01596,453.48718C239.36737,457.60815,239.78267,461.50555,239.94241,462.1444C240.10214,462.75137,240.83687,464.0612,241.53967,465.0195C244.57452,469.17242,244.54254,469.10855,244.15921,469.93912C243.93558,470.45026,243.36057,470.83356,242.49802,471.05722C240.77298,471.5045,240.13405,472.55865,240.38963,474.3476C240.61325,475.75323,239.97435,477.47827,237.86594,481.12006C237.45065,481.8229,237.09924,482.65347,237.09924,482.97287C237.06729,483.64377,236.14087,485.4966,235.69363,485.78412C235.5339,485.91187,234.86305,486.10358,234.22414,486.19946C233.58524,486.2953,232.40324,486.90222,231.54073,487.5092C230.26291,488.46756,230.03928,488.787,230.03928,489.71344C230.03928,490.8475,229.8937,491.0874,226.44794,491.0874C225.62305,491.0874,224.60907,491.07367,223.36267,491.05515C222.37758,491.04153,221.58899,491.03232,220.95389,491.03232C218.6025,491.03232,218.35474,491.15906,218.02776,491.66208C217.70831,492.1413,217.58047,494.02606,217.58047,499.32904L217.51663,506.35706L240.99658,506.45282L259.91577,506.50436L259.91318,506.50436Q260.50006,506.57938,260.96112,506.60318Q261.35767,506.6291,261.7188,506.6291Q262.48303,506.6291,263.08856,506.513L263.0912,506.513L264.47653,506.51678L265.17938,505.65424C265.5812,505.14154,265.7246,504.81516,265.45316,504.60992L265.4505,504.60992Q265.95642,503.27106,265.77728,500.95825L265.77432,500.95825C265.80124,500.10776,265.81827,499.08337,265.81827,498.01926L265.81827,493.4191L264.73212,492.2052L263.646,491.02322L260.61118,490.99124C257.2569,490.92734,256.74576,490.7676,257.03326,489.87314C257.2569,489.23422,255.85129,487.66888,254.31787,486.90222C253.1359,486.26328,249.65387,485.75217,246.6829,485.75217L244.0314,485.75217L244.19115,484.69797C244.47867,482.94098,245.24536,479.8103,245.50095,479.39502C245.58533,479.2684,245.66351,479.20374,245.74918,479.20374C245.85803,479.20374,245.97891,479.30826,246.13982,479.5228C246.42734,479.90616,247.0982,480.06586,248.72742,480.09775L249.17502,480.11057L249.17502,480.11057L248.17082,419.33167 Z M379.7878,497.10547C379.98953,497.10547,380.0448,498.5366,380.1194,503.16245C380.15137,506.96402,380.343,509.99884,380.50275,510.15857C380.6944,510.35025,380.8222,511.43637,380.8222,512.61835C380.8222,514.0239,381.20554,516.2602,381.9722,519.16724C384.01675,527.18555,384.59177,539.229,383.05838,542.2958C382.93057,542.5514,382.57922,543.35,382.2917,544.05273C381.58887,545.74585,379.51242,547.9502,378.3624,548.2377C377.8832,548.3655,377.34012,548.5571,377.14847,548.6848C376.61603,549.08417,375.0854,549.5057,374.3865,549.5057C374.24673,549.5057,374.14026,549.48883,374.08167,549.45154C373.85806,549.3237,374.24142,548.7488,375.13586,547.88617C375.9345,547.1196,377.1165,545.49036,377.75543,544.2125C378.84158,542.13605,378.93738,541.7208,378.80963,540.09155C378.5221,537.0248,378.2346,536.1941,376.98874,534.9483C375.83868,533.79834,375.29556,533.5746,372.19687,533.09546L370.75937,532.8718L370.5677,529.3578C370.47183,527.4092,370.15237,525.04517,369.89682,524.0868C369.00238,521.052,368.587,518.7519,368.77872,517.9852C369.0182,517.0873,370.35135,515.6004,370.86008,515.6004C370.89435,515.6004,370.92484,515.6072,370.951,515.6212C371.11075,515.749,371.23856,516.1004,371.23856,516.4198C371.23856,516.93097,373.28305,518.9755,373.8261,518.9755C373.92197,518.9755,374.49695,518.6561,375.10394,518.24084C376.09427,517.56995,376.22202,517.3463,376.41367,515.46155C376.5415,514.31146,376.79703,512.5225,376.98874,511.46835C377.18036,510.41415,377.46793,508.75296,377.62762,507.7946C377.78738,506.8362,378.07486,505.23892,378.2346,504.28055C378.39435,503.32224,378.68182,501.5972,378.84158,500.44714C379.03326,499.29712,379.35266,497.92343,379.57632,497.4123C379.6612,497.22125,379.73044,497.10547,379.7878,497.10547 Z M265.81827,507.47516L215.1846,507.50708L214.32205,508.27374C213.49149,508.97656,213.42758,509.23218,213.42758,511.40445L213.42758,513.8003L214.57764,514.34344C215.31241,514.6948,216.62213,514.8865,218.31525,514.91846L220.93481,514.9823L221.09454,535.74695L221.25427,556.5115L226.68501,556.5115L226.78085,535.8747C226.84473,516.5476,226.87668,515.20593,227.41974,515.0781C227.61584,515.0221,235.69771,514.9968,244.77162,514.9968C256.39246,514.9968,269.64044,515.0383,270.0351,515.1101C270.1948,515.1101,270.3226,524.43823,270.35455,535.8108L270.45038,556.5115L275.88116,556.5115L275.97693,535.9386C276.0089,523.89514,276.1686,515.2699,276.32837,515.1421C276.48807,515.04626,285.337,514.9823,296.00684,514.9823C306.6766,514.9823,315.46164,514.8865,315.52554,514.75867C315.62137,514.599,316.32416,514.2157,317.05893,513.86426C318.59225,513.19336,318.84787,512.77814,318.84787,511.02112C318.84787,510.06274,318.62424,509.6155,317.6339,508.65714L316.41998,507.47516 Z M346.54538,408.68787C346.4317,408.68787,346.3345,408.7141,346.2455,408.76605C346.07687,408.8664,345.9538,409.07507,345.66315,409.78424C345.55707,410.04263,345.42783,410.28333,345.38013,410.31564C345.33313,410.35306,345.1056,410.44046,344.87085,410.5131C344.55753,410.6098,344.4059,410.64038,344.14816,410.64038C344.1142,410.64038,344.07843,410.63986,344.0402,410.6389C344.00958,410.63828,343.97845,410.63797,343.94687,410.63797C343.3116,410.63797,342.49753,410.76028,342.2191,410.9012C341.75613,411.13416,341.50146,411.52664,341.27377,412.35742C341.20477,412.62128,341.191,412.83105,341.22202,413.3C341.24252,413.65076,341.23584,413.95316,341.2038,414.025C341.17172,414.09683,341.04938,414.2326,340.9274,414.33197C340.80096,414.4371,340.70593,414.54333,340.70932,414.56888C340.71338,414.59952,340.60162,414.69754,340.46735,414.7829C340.12634,414.99448,340.03705,415.1051,339.92377,415.42685C339.8705,415.57425,339.7222,415.8278,339.5981,415.9898C339.31314,416.3499,338.97702,416.95084,338.8998,417.23132C338.85132,417.41452,338.77606,417.8664,338.68872,418.57974C338.67606,418.68018,338.68845,418.96967,338.72748,419.22446C338.76813,419.53098,338.77136,419.79044,338.73206,420.0036C338.7033,420.17896,338.66296,420.42343,338.64722,420.5399C338.60303,420.87326,338.55023,420.90625,337.82886,421.0331C337.41876,421.1039,337.17517,421.1299,336.82,421.1299C336.72623,421.1299,336.62466,421.12808,336.5102,421.12482C336.41177,421.1212,336.30887,421.11945,336.20267,421.11945C335.05157,421.11945,333.5127,421.32413,333.1082,421.5396C333.07004,421.56546,332.99408,421.58075,332.94742,421.58173C332.89566,421.5834,332.79236,421.7062,332.69144,421.88593C332.583,422.0875,332.44742,422.2407,332.3043,422.33765C331.85016,422.63696,331.60712,422.96033,330.87335,424.24808C330.82663,424.32706,330.76657,424.50137,330.73685,424.6301C330.6187,425.15002,330.5028,425.8048,330.5143,425.89166C330.5387,426.0756,330.4038,427.09677,330.31952,427.36267C330.27136,427.50943,330.22012,427.75015,330.20334,427.89795C330.15808,428.3406,330.0158,428.71817,329.84848,428.8287C329.76773,428.8862,329.54974,428.96713,329.3679,429.00684C328.93256,429.09573,328.8099,429.18997,328.61285,429.58527C328.52216,429.76364,328.4066,429.95053,328.35135,430.00467C328.1984,430.14453,328.06256,430.45358,327.72473,431.4341C327.4507,432.22943,327.4087,432.42215,327.38147,432.88324C327.36832,433.1761,327.34384,433.57962,327.32294,433.77472C327.2677,434.41635,327.29962,435.00992,327.49078,436.80405C327.59396,437.77808,327.7181,438.9885,327.7654,439.50208C327.84653,440.34903,327.8625,440.43008,327.94318,440.4506C327.99698,440.46423,328.02725,440.4966,328.01022,440.52487C327.99826,440.55243,328.09238,440.9091,328.21875,441.3134C328.40802,441.9173,328.4828,442.08932,328.63116,442.26718C328.7356,442.3885,328.82166,442.52783,328.8291,442.584C328.8328,442.63205,328.8346,442.65518,328.82672,442.65518C328.81943,442.65518,328.8038,442.6352,328.77362,442.5966C328.7327,442.54572,328.69934,442.5226,328.6797,442.52136L328.6764,442.52136C328.64883,442.5233,328.65405,442.57535,328.71396,442.6565C328.76062,442.73352,328.80722,442.81052,328.81128,442.84116C328.84686,443.07037,329.0238,443.30685,329.39682,443.61087C329.6215,443.80093,329.83463,443.9423,329.87552,443.9423C329.8762,443.9423,329.87683,443.94226,329.8774,443.94217C329.88376,443.9406,329.88962,443.93982,329.89493,443.93982C329.92743,443.93982,329.93976,443.9694,329.92538,444.0294C329.9184,444.08325,329.91946,444.1073,329.93414,444.1073C329.9411,444.1073,329.95114,444.1019,329.9648,444.09174C329.9811,444.07748,329.99283,444.0701,329.99988,444.069L330.00317,444.069C330.0107,444.07053,330.00912,444.0841,329.9982,444.1081C329.9774,444.14725,330.01242,444.2154,330.0652,444.26044C330.12372,444.30984,330.16077,444.3933,330.15356,444.45663C330.14606,444.5124,330.16068,444.55566,330.18887,444.55566C330.19012,444.55566,330.19138,444.5556,330.1927,444.55542C330.1928,444.5554,330.19296,444.5554,330.19308,444.55536L330.19638,444.55536C330.32013,444.56888,330.30643,446.10236,330.17197,447.41736C330.15652,447.57538,330.13318,447.86957,330.12894,448.07288C330.11893,448.27176,330.08423,448.67664,330.05,448.96707C330.01575,449.2576,329.99435,449.64514,330.00784,449.8253L330.03076,450.15494L330.44397,450.44843C330.79486,450.70337,330.9001,450.75186,331.17963,450.78235C331.32376,450.80072,331.5204,450.81213,331.66187,450.81213C331.69687,450.81213,331.72852,450.81143,331.75513,450.80997C331.77094,450.8093,331.78638,450.80896,331.80148,450.80896C332.06326,450.80896,332.2206,450.90952,332.24435,451.08826C332.26334,451.23132,332.22482,451.72507,332.16116,452.1858C332.12073,452.45532,332.1976,452.74893,332.30124,452.74893C332.30368,452.74893,332.30612,452.74878,332.30856,452.74844C332.3093,452.74835,332.3101,452.7483,332.31094,452.7483C332.33932,452.7483,332.42737,452.80283,332.51788,452.87662C332.60153,452.9451,332.7073,453.0011,332.75214,453.0011C332.75418,453.0011,332.7561,453.00098,332.75787,453.00073C332.75946,453.00052,332.76117,453.00043,332.76297,453.00043C332.8593,453.00043,333.24707,453.29874,333.41107,453.4964C333.5169,453.6279,333.60007,453.98077,333.52344,453.99094C333.45193,454.00043,333.62012,454.52396,333.73172,454.6599C333.78717,454.72534,333.9989,454.8324,334.20013,454.8993C334.57565,455.02625,334.753,455.1483,334.77713,455.29068C334.78323,455.33667,334.80975,455.37994,334.83154,455.38745C334.92825,455.411,335.14325,455.6996,335.15952,455.82217C335.16898,455.8937,335.238,456.06128,335.31314,456.19687C335.3883,456.33246,335.4553,456.48474,335.46207,456.53583C335.47833,456.65842,335.33826,456.81735,335.1356,456.8962C335.04703,456.93396,334.9094,456.9938,334.82596,457.03088C334.23486,457.3172,334.11563,457.35904,333.73627,457.39896C333.2145,457.46292,332.76898,457.6312,332.22183,457.97412C331.70325,458.29758,331.27097,458.52646,330.39822,458.9229C329.8586,459.16602,329.295,459.62027,329.21823,459.86438C328.9728,460.64032,328.9513,460.75235,328.75342,462.23935C328.70346,462.64633,328.64114,463.0392,328.6251,463.1141C328.6039,463.1897,328.58853,463.2697,328.5824,463.30173C328.58066,463.32797,328.544,463.63953,328.49677,463.9889C328.45462,464.33755,328.3967,464.8807,328.37167,465.2012C328.34592,465.5165,328.29984,466.11005,328.26004,466.5156C328.22537,466.9205,328.1838,467.43024,328.17072,467.6451C328.15762,467.86,328.1343,468.0762,328.12442,468.1191C328.10458,468.20493,328.10522,468.288,328.12918,468.58633C328.1332,468.67545,328.12866,468.72183,328.11063,468.72183C328.1046,468.72183,328.0971,468.71667,328.0879,468.70618C328.08377,468.7012,328.0803,468.69833,328.07745,468.69748L328.0742,468.69748C328.06018,468.7027,328.06955,468.78082,328.09897,468.90744C328.1343,469.06543,328.13763,469.14838,328.10797,469.14838C328.1054,469.14838,328.10257,469.14777,328.09952,469.1465C328.09418,469.1433,328.08853,469.14178,328.08276,469.14178C328.05795,469.14178,328.03107,469.16962,328.01944,469.20914C328.0109,469.26224,328.0272,469.30685,328.0541,469.3137C328.13922,469.3284,328.1395,469.44797,328.06213,469.53104C327.98694,469.6117,327.9934,469.7896,328.06882,469.7896C328.071,469.7896,328.07324,469.78946,328.07556,469.78915C328.07718,469.78894,328.07874,469.78885,328.08026,469.78885C328.10275,469.78885,328.11395,469.8117,328.10278,469.83752C328.08926,469.86508,328.06696,469.8796,328.0473,469.8796C328.04315,469.8796,328.03912,469.87897,328.03534,469.87766C328.03314,469.87643,328.031,469.87582,328.029,469.87582C328.01044,469.87582,328.0002,469.92636,328.00937,469.99548C328.01953,470.0721,327.9778,470.30637,327.9174,470.51712C327.8095,470.87976,327.80914,470.9162,327.89645,471.22174C327.9508,471.39648,328.0528,471.69485,328.1245,471.8829C328.22104,472.1404,328.2597,472.35364,328.29074,472.7446C328.3076,473.02826,328.36996,473.4203,328.42703,473.61545C328.67267,474.48743,328.89725,475.20105,328.96527,475.32196C329.06766,475.50592,329.14252,476.10947,329.11533,476.49255C329.1026,476.67096,329.13464,477.10858,329.19733,477.54214C329.23798,477.79932,329.28473,478.1179,329.32434,478.38834L329.32104,478.38834Q328.84567,478.77863,328.58206,479.3056Q327.97247,480.50586,328.57227,482.78598Q329.16153,485.07327,331.03195,488.74222Q332.16345,490.9961,334.54248,495.0895L334.53912,495.0895L334.57803,495.41263Q334.63586,495.81192,334.4291,496.02673Q333.2984,497.02005,332.39355,497.24194Q332.41846,497.3011,331.50723,497.31934L331.51056,497.31934L331.46634,498.01926L328.65512,497.92343C328.28555,497.9109,327.94662,497.90448,327.63818,497.90448C326.37387,497.90448,325.62158,498.01172,325.36475,498.24286C325.10922,498.43457,324.02304,498.6582,322.93686,498.754C322.66147,498.76675,322.417,498.77548,322.1924,498.77548C320.72342,498.77548,320.1046,498.40005,317.25058,496.29422C316.64365,495.815,315.4936,495.27188,314.69495,495.01636C313.89633,494.79272,313.06573,494.44138,312.87402,494.28168C312.7343,494.18182,312.36993,494.13187,311.9369,494.13187C311.6771,494.13187,311.39258,494.14984,311.11707,494.18585C310.35037,494.3135,308.7531,494.4733,307.5072,494.56918C305.39877,494.7608,304.15295,495.30392,304.15295,496.07053C304.15295,496.23032,303.7376,496.86917,303.19455,497.4762C302.6834,498.05124,302.23618,498.8179,302.23618,499.13733C302.23618,500.0359,301.74103,500.37738,300.13733,500.37738C299.74545,500.37738,299.28735,500.35703,298.75412,500.31934C297.31656,500.2235,294.98456,500.0318,293.547,499.936C292.0775,499.84018,290.7358,499.61658,290.54413,499.45685C290.47598,499.39844,290.39896,499.3697,290.31393,499.3697C290.1199,499.3697,289.88425,499.5194,289.6177,499.8082C289.26898,500.20047,288.90707,500.40112,288.42975,500.40112C287.8576,500.40112,287.11963,500.11282,286.03983,499.5207C285.12173,499.0087,284.7013,498.77966,284.37943,498.77966C284.11893,498.77966,283.923,498.92972,283.58,499.20123C283.07788,499.5957,282.7469,499.7789,282.40622,499.7789C282.14,499.7789,281.86786,499.667,281.50354,499.45685C281.30533,499.32468,281.1322,499.2483,280.9397,499.2483C280.48068,499.2483,279.91135,499.6826,278.62842,500.83047C277.5423,501.85272,277.31866,502.23605,277.31866,503.25833C277.31866,504.21664,277.5423,504.69586,278.37286,505.4945L279.4271,506.51678L295.81512,506.51678C297.7953,506.52115,299.5429,506.52374,301.08615,506.52374C310.72162,506.52374,312.39166,506.42307,312.96988,506.03757C313.89633,505.4306,313.92825,504.88757,313.0977,504.12082C312.74625,503.8014,312.45877,503.41806,312.45877,503.25833C312.45877,503.0679,312.5626,502.9781,312.7396,502.9781C313.12668,502.9781,313.86383,503.4075,314.63104,504.1528C315.97275,505.4306,317.18668,506.06955,318.97562,506.32516C319.7618,506.42996,320.24225,506.62076,320.46918,506.94458Q322.63898,506.75986,324.29694,506.75986Q324.34198,506.75986,324.38666,506.75998L324.39276,506.76Q326.9281,506.7694,328.00186,507.2451Q329.0163,507.70154,328.79962,508.7197Q328.41486,510.15802,326.5054,511.5163Q326.42007,511.57498,326.3339,511.63037L326.33716,511.63037C326.42285,512.0233,324.44815,513.22534,323.73553,513.22534C323.448,513.22534,322.61743,513.76843,321.85074,514.40735C318.94373,516.93097,317.9534,517.69775,317.6978,517.69775C317.5381,517.69775,316.9631,518.145,316.38806,518.6561C315.39777,519.5825,315.3019,519.61444,311.94763,519.61444C310.0628,519.61444,308.0822,519.74225,307.53912,519.9339C306.9961,520.0936,304.40845,520.60474,301.75702,521.052C292.87613,522.5854,290.3205,523.1604,288.4996,524.0868C287.094,524.82153,286.51898,525.46045,285.6245,527.3452C285.0495,528.5592,284.95364,529.23,285.08142,531.01904C285.3051,534.2135,285.5606,534.9483,287.094,536.6095C287.86075,537.44,288.4996,538.36646,288.4996,538.6859C288.4996,539.0054,288.8191,539.8999,289.17047,540.6985C289.5538,541.4972,290.033,542.9347,290.28854,543.89294C290.83163,545.9695,290.89554,546.1293,292.6206,549.739C293.38724,551.30444,294.3137,553.31696,294.729,554.24335C295.14426,555.1379,295.68738,556.06433,295.94296,556.2879C296.22537,556.51904,297.8492,556.6263,302.05844,556.6263C303.08624,556.6263,304.26822,556.61993,305.62244,556.6073L314.85468,556.5115L314.95053,554.33923C315.0144,552.67804,314.88663,551.9114,314.4074,550.98486C314.088,550.34607,313.6088,549.06824,313.38516,548.2057C313.19348,547.3112,312.4907,545.49036,311.8837,544.14856C310.9897,542.1643,310.7357,541.2368,311.12173,541.23395L311.12524,541.23395C311.30542,541.2352,311.62216,541.43384,312.0754,541.8166C312.7615,542.39197,313.0336,542.5841,314.03885,542.5841C314.48468,542.5841,315.07462,542.54626,315.90884,542.4874C316.51373,542.4496,317.4864,542.43176,318.64264,542.43176C320.41754,542.43176,322.62494,542.47394,324.59808,542.5514L330.47604,542.7749L330.38022,544.4361C330.34827,545.36255,330.47604,546.67236,330.69968,547.3112C331.17883,548.7168,332.16916,550.2821,332.58444,550.2821C332.7442,550.2821,333.79837,550.8572,334.9484,551.5919C336.3606,552.46844,336.9192,552.75116,337.57172,552.75116C337.77533,552.75116,337.98807,552.72363,338.23877,552.67804C338.90967,552.5503,341.56116,552.3906,344.18066,552.2947L348.87665,552.1669L348.87665,553.92395C348.87665,556.6073,349.0364,556.67126,354.59488,556.67126C357.1825,556.67126,359.38672,556.57544,359.48257,556.4796C359.5784,556.3838,359.48257,555.5531,359.22702,554.6587C358.69614,552.6147,358.60638,552.2251,359.45264,552.2251C359.6248,552.2251,359.8357,552.2412,360.08954,552.2628C361.3993,552.35864,361.43127,552.4225,361.94238,553.95593C362.6867,556.2915,362.62677,556.64746,365.2749,556.64746C365.9228,556.64746,366.73288,556.6262,367.7565,556.6073L372.35663,556.5115L372.45245,555.01013C372.58023,553.285,372.73996,553.12524,375.072,552.3906C376.03036,552.07117,377.5957,551.46423,378.5221,551.0488C379.44852,550.63354,380.343,550.2821,380.53467,550.2821C381.14166,550.2821,385.2946,546.0653,385.2946,545.4584C385.2946,545.1389,385.4543,544.78754,385.61404,544.6917C385.8057,544.5959,385.9335,544.14856,385.9335,543.73334C385.9335,543.318,386.0932,542.8708,386.25293,542.7749C386.4446,542.64716,386.5724,540.3151,386.5724,536.865C386.5724,533.4149,386.4446,531.0828,386.25293,530.9551C386.0932,530.85925,385.9335,529.4217,385.9335,527.7925C385.9335,526.19525,385.8057,524.7257,385.64594,524.56604C385.48624,524.3743,385.2626,523.09656,385.1987,521.6909C385.1029,520.2853,384.87924,518.2727,384.68762,517.2185C384.3043,515.0781,383.85706,512.36273,383.31396,508.75296C382.83472,505.5584,382.96252,499.84018,383.53757,498.17905C384.14453,496.51782,384.1765,492.36493,383.63342,491.8857C383.40976,491.69406,382.80283,491.50238,382.25977,491.43848C381.36526,491.3426,381.3014,491.2787,381.36526,490.0648C381.42917,489.362,381.68472,488.0842,382.00415,487.18967C382.93057,484.4104,382.51532,481.85477,381.0778,481.50342C380.94092,481.4661,380.77603,481.44873,380.59067,481.44873C380.4461,481.44873,380.28906,481.45932,380.12308,481.47928L380.1269,481.47928L375.67288,483.56824L375.67664,483.56824C375.53735,483.65424,375.4164,483.71005,375.32455,483.72986L375.3283,483.72986L374.87668,483.94168L374.88043,483.94168Q374.5951,484.19565,374.35748,484.35406Q374.1848,484.44403,374.0899,484.44403Q374.07162,484.44403,374.05624,484.4407Q373.9661,484.40042,373.8772,484.35623L373.87344,484.35623L373.87347,484.35626L373.87344,484.35626L373.92157,484.44952L374.02768,484.65518Q373.7867,484.41623,373.5529,484.18176L373.5566,484.18176Q373.2265,483.9861,372.9141,483.73346L372.91785,483.73346L372.6419,483.6189Q372.56525,483.58694,372.46582,483.53604Q371.993,483.29062,372.00696,483.2882L372.00772,483.2882L371.88376,483.20016L371.88004,483.20016Q368.1594,469.60095,363.81345,463.91916Q361.97943,461.6415,359.95163,460.35376L359.94803,460.35376C359.89847,460.28033,359.84717,460.20392,359.79404,460.12436C359.5406,459.74213,359.28613,459.3912,359.2218,459.33734C359.15817,459.2886,358.91013,458.94717,358.6638,458.57953C358.41818,458.217,358.1229,457.79352,357.99905,457.64362C357.8803,457.49304,357.65134,457.13867,357.48877,456.85352C357.33127,456.56766,357.11835,456.2164,357.0214,456.0733C356.9238,455.9251,356.80646,455.70676,356.75443,455.5889C356.70242,455.47104,356.4935,455.1504,356.2914,454.8809C356.0849,454.6172,355.8614,454.30368,355.7947,454.19296C355.72736,454.07712,355.53204,453.85873,355.36014,453.6995C355.0879,453.4497,355.0413,453.37274,354.9424,453.05835C354.87958,452.85873,354.78198,452.63257,354.72382,452.54672C354.66052,452.46146,354.60782,452.3385,354.59903,452.2721C354.5902,452.20566,354.5654,452.13617,354.54227,452.11847C354.4902,452.07858,353.99826,450.839,354.02487,450.80426C354.02713,450.8013,354.0309,450.79984,354.03577,450.79984C354.04987,450.79984,354.0728,450.81238,354.09164,450.83707C354.11255,450.86493,354.21527,450.87698,354.34238,450.87698C354.56046,450.87698,354.85034,450.84146,354.9222,450.78925C355.0316,450.71234,355.06824,450.47882,355.05215,450.04425C355.03714,449.57837,355.03827,449.46906,355.08676,449.28586C355.13693,449.07645,355.04147,448.7876,354.80878,448.44418C354.59613,448.13446,354.3823,447.58057,354.34067,447.2274C354.32373,447.09967,354.34882,446.77924,354.39734,446.51804C354.44522,446.25177,354.4727,445.91022,354.45746,445.7563C354.43512,445.5877,354.44818,445.4508,354.485,445.41473C354.52176,445.3787,354.53543,445.32486,354.52048,445.29047C354.5011,445.26184,354.52255,445.2278,354.56854,445.2217C354.6145,445.2156,354.64758,445.19043,354.64487,445.17C354.64148,445.14447,354.80646,444.89902,355.01337,444.61685C355.22098,444.33987,355.38596,444.09442,355.3839,444.0791C355.38187,444.06378,355.49576,443.9031,355.6338,443.72885C355.96368,443.31592,356.2498,442.84656,356.51273,442.28143C356.63107,442.037,356.80225,441.7596,356.89938,441.66876C357.02817,441.5425,357.1107,441.3808,357.2168,441.04434C357.29224,440.79,357.42288,440.48157,357.50504,440.3563C357.58725,440.23108,357.70557,439.98666,357.77142,439.81677C357.97443,439.27,358.26346,437.92163,358.3041,437.28723C358.32028,437.05634,358.35724,436.78632,358.38147,436.69473C358.40506,436.59805,358.4346,436.19376,358.43863,435.79294C358.44775,435.39145,358.46164,435.02573,358.46643,434.98352C358.4866,434.86127,358.45593,433.92435,358.41644,433.43057C358.29422,431.882,358.28983,431.80978,358.36157,431.5664C358.40457,431.42032,358.42557,431.14725,358.41144,430.88397L358.3852,430.45078L358.59875,430.37567C358.922,430.2652,358.9708,430.12357,358.8267,429.6644L358.71014,429.29514L358.83636,428.99246C358.90292,428.82776,359.06253,428.54147,359.1883,428.3532C359.8489,427.37665,360.24728,426.53885,360.51294,425.5627C360.55902,425.40067,360.62695,425.1681,360.66312,425.04886C360.78973,424.6318,360.9339,423.99405,360.95822,423.7465C360.99014,423.39917,360.8722,422.5882,360.7281,422.20706C360.59894,421.8603,360.3249,420.77377,360.1643,419.99448C360.0388,419.36133,359.71457,418.40616,359.4432,417.84958C359.1939,417.34195,358.58496,416.435,358.15485,415.93576C357.64413,415.33813,356.8886,414.65854,356.589,414.51627C356.36194,414.41122,355.6434,413.89313,355.63458,413.8267C355.56818,413.40405,355.22858,412.45096,355.12274,412.39743C355.10025,412.3848,354.9499,412.19162,354.79102,411.97357C354.35837,411.39047,354.18103,411.22516,353.85376,411.22516C353.7932,411.22516,353.7275,411.2308,353.65408,411.24054C353.63458,411.24313,353.6133,411.2444,353.5914,411.2444C353.51566,411.2444,353.43185,411.2295,353.38406,411.20358C353.26663,411.1412,352.55902,411.0583,352.1218,411.05392C351.79892,411.05,351.6246,410.98987,351.3213,410.78055C351.00137,410.56308,350.74075,410.24414,350.71298,410.03467C350.701,409.94437,350.6713,409.87146,350.65085,409.87146C350.65048,409.87146,350.65012,409.87146,350.64975,409.87152C350.64954,409.87155,350.6493,409.87155,350.64905,409.87155C350.62717,409.87155,350.52884,409.75058,350.4316,409.5989C350.0901,409.06198,349.55566,408.71695,349.04483,408.7067C349.0356,408.70645,349.02664,408.7063,349.01788,408.7063C348.87247,408.7063,348.7814,408.74384,348.57578,408.89374C348.36884,409.04453,348.23416,409.12253,348.05167,409.12253C347.84958,409.12253,347.58884,409.02692,347.10635,408.8286C346.87717,408.73434,346.6967,408.68787,346.54538,408.68787 Z"/> </g> </g> </svg>