<svg xmlns="http://www.w3.org/2000/svg" width="488" height="336" viewBox="0 0 488 336" class="subscribe-svg"><path d="M350 300c-42 0-107.981-6-216-6-70 0-72-108-54-156 23.249-61.996 116-56 116-56l138 2s58 12 58 90 0 126-42 126z" fill="#eaf5f5"/><path d="M88 110h288v170a6 6 0 0 1-6 6H94a6 6 0 0 1-6-6V110z" fill="#fff"/><path d="M88 110h288v170a6 6 0 0 1-6 6H94a6 6 0 0 1-6-6V110z" fill="none" stroke="#c5c0c3" stroke-miterlimit="10" stroke-width="2"/><rect x="235.208" y="226" width="131" height="48" rx="4" ry="4" fill="#f6f5f5"/><rect x="97.208" y="226" width="131" height="48" rx="4" ry="4" fill="#f6f5f5"/><path d="M94 78h276a6 6 0 0 1 6 6v26H88V84a6 6 0 0 1 6-6z" fill="#fff3ce"/><circle cx="106.5" cy="94" r="6" fill="#ff7e6d" stroke="#bf4e45" stroke-miterlimit="10" stroke-width="2"/><circle cx="124.5" cy="94" r="6" fill="#ffdb6d" stroke="#dba758" stroke-miterlimit="10" stroke-width="2"/><circle cx="142.5" cy="94" r="6" fill="#27cba4" stroke="#138466" stroke-miterlimit="10" stroke-width="2"/><rect x="172.5" y="88" width="192" height="12" rx="6" ry="6" fill="#fff" stroke="#dba758" stroke-miterlimit="10" stroke-width="2"/><path d="M90.5 79h283a2 2 0 0 1 2 2h-287a2 2 0 0 1 2-2z" fill="#fffbee"/><path d="M94 78h276a6 6 0 0 1 6 6v26H88V84a6 6 0 0 1 6-6z" fill="none" stroke="#dba758" stroke-miterlimit="10" stroke-width="2"/><rect x="97.208" y="119" width="270" height="28" rx="4" ry="4" fill="#f6f5f5"/><path fill="none" stroke="#c5c0c3" stroke-linecap="round" stroke-miterlimit="10" stroke-width="2" d="M111.208 133h30"/><path fill="none" stroke="#c5c0c3" stroke-linecap="round" stroke-miterlimit="10" stroke-width="2" d="M97.208 208h40"/><path fill="none" stroke="#c5c0c3" stroke-linecap="round" stroke-miterlimit="10" stroke-width="2" d="M97.208 212h26"/><path fill="none" stroke="#c5c0c3" stroke-linecap="round" stroke-miterlimit="10" stroke-width="2" d="M149.208 208h10"/><path fill="none" stroke="#c5c0c3" stroke-linecap="round" stroke-miterlimit="10" stroke-width="2" d="M167.208 208h30"/><path fill="none" stroke="#c5c0c3" stroke-linecap="round" stroke-miterlimit="10" stroke-width="2" d="M167.208 212h16"/><path fill="none" stroke="#c5c0c3" stroke-linecap="round" stroke-miterlimit="10" stroke-width="2" d="M218.208 208h10"/><path fill="none" stroke="#c5c0c3" stroke-linecap="round" stroke-miterlimit="10" stroke-width="2" d="M236.708 208h30"/><path fill="none" stroke="#c5c0c3" stroke-linecap="round" stroke-miterlimit="10" stroke-width="2" d="M236.708 212h16"/><path fill="none" stroke="#c5c0c3" stroke-linecap="round" stroke-miterlimit="10" stroke-width="2" d="M287.708 208h10"/><path fill="none" stroke="#c5c0c3" stroke-linecap="round" stroke-miterlimit="10" stroke-width="2" d="M305.208 208h30"/><path fill="none" stroke="#c5c0c3" stroke-linecap="round" stroke-miterlimit="10" stroke-width="2" d="M305.208 212h16"/><path fill="none" stroke="#c5c0c3" stroke-linecap="round" stroke-miterlimit="10" stroke-width="2" d="M355.708 208h10"/><path fill="none" stroke="#c5c0c3" stroke-linecap="round" stroke-miterlimit="10" stroke-width="2" d="M337.208 133h18"/><path fill="none" stroke="#c5c0c3" stroke-linecap="round" stroke-miterlimit="10" stroke-width="2" d="M313.208 133h12"/><path fill="none" stroke="#c5c0c3" stroke-linecap="round" stroke-miterlimit="10" stroke-width="2" d="M287.208 133h16"/><path fill="none" stroke="#c5c0c3" stroke-linecap="round" stroke-miterlimit="10" stroke-width="2" d="M261.208 133h14"/><rect x="97.208" y="154" width="63" height="48" rx="4" ry="4" fill="#f6f5f5"/><rect x="166.208" y="154" width="63" height="48" rx="4" ry="4" fill="#f6f5f5"/><rect x="235.208" y="154" width="63" height="48" rx="4" ry="4" fill="#f6f5f5"/><rect x="304.208" y="154" width="63" height="48" rx="4" ry="4" fill="#f6f5f5"/><path d="M481.19 304.521c-1.635 10.385-9.94 27.374-17.89 12.634s-7.778-88.438-6.87-147.397 3.376-125.425 8.857-138.973c5.964-14.74 13.914-2.106 15.902 6.317 2.045 8.667 6.811 77.91 6.811 134.763s-4.823 120.022-6.81 132.656z" fill="#eaf5f5"/><path d="M467 25h6a3 3 0 0 1 3 3v21h-12V28a3 3 0 0 1 3-3z" fill="#7f6371" stroke="#553143" stroke-miterlimit="10" stroke-width="2"/><rect x="461" y="99" width="18" height="126" rx="1" ry="1" fill="#7f6371" stroke="#553143" stroke-miterlimit="10" stroke-width="2"/><rect x="461" y="225" width="18" height="54" rx="1" ry="1" fill="#7f6371" stroke="#553143" stroke-miterlimit="10" stroke-width="2"/><path d="M463 49h14a1 1 0 0 1 1 1v3h-16v-3a1 1 0 0 1 1-1z" fill="#ff7e6d" stroke="#553143" stroke-miterlimit="10" stroke-width="2"/><path fill="#7f6371" stroke="#553143" stroke-miterlimit="10" stroke-width="2" d="M462 53h16v46h-16z"/><rect x="470" y="305" height="20" transform="rotate(180 470 315)" fill="#e8e6e7"/><g fill="#938a8f"><path d="M469.5 305.5h1v19h-1z"/><path d="M471 305h-2v20h2v-20z"/></g><path fill="#7f6371" stroke="#553143" stroke-miterlimit="10" stroke-width="2" d="M473 288h-6l-4-9h14l-4 9z"/><path d="M467 306v-18h6v18a1 1 0 0 1-1 1h-4a1 1 0 0 1-1-1z" fill="#7f6371" stroke="#553143" stroke-miterlimit="10" stroke-width="2"/><path fill="none" stroke="#72586b" stroke-miterlimit="10" stroke-width="4" d="M476 101v122"/><path fill="none" stroke="#72586b" stroke-miterlimit="10" stroke-width="4" d="M476 227v50"/><path fill="none" stroke="#8c7381" stroke-miterlimit="10" stroke-width="4" d="M464 100v124"/><path fill="none" stroke="#8c7381" stroke-miterlimit="10" stroke-width="4" d="M465 54v43"/><path d="M467 48h-2V28a2 2 0 0 1 2-2z" fill="#8c7381"/><path d="M475 48h-2V26a2 2 0 0 1 2 2z" fill="#72586b"/><path fill="none" stroke="#8c7381" stroke-miterlimit="10" stroke-width="4" d="M464 227v50"/><path fill="none" stroke="#72586b" stroke-miterlimit="10" stroke-width="4" d="M475 54v42"/><path fill="none" stroke="#8c7381" stroke-miterlimit="10" stroke-width="2" d="M462 223h16"/><path fill="none" stroke="#8c7381" stroke-miterlimit="10" stroke-width="2" d="M463 97h14"/><path fill="none" stroke="#8c7381" stroke-miterlimit="10" stroke-width="2" d="M462 277h16"/><path fill="#8c7381" d="M468 289h2v17h-2z"/><path fill="none" stroke="#72586b" stroke-miterlimit="10" stroke-width="2" d="M462 101h16"/><path fill="none" stroke="#72586b" stroke-miterlimit="10" stroke-width="2" d="M462 227h16"/><path d="M485 131l-2 8a2 2 0 0 0 2 2 2 2 0 0 0 2-2V67a4 4 0 0 0-4-4 4 4 0 0 0-4 4v26" fill="none" stroke="#553143" stroke-linecap="round" stroke-linejoin="round" stroke-width="2"/><path d="M441.195 315.462c-1.398 11.595-8.503 30.564-15.305 14.106s-10.566-98.747-9.79-164.578 1.789-143.575 6.478-158.702c11.733-10.114 22.489-8.091 22.528 6.538C446.856 22.503 448 104.63 448 168.11s-5.104 133.245-6.805 147.352z" fill="#eaf5f5"/><path fill="#e8e6e7" d="M425 18h16v24h-16z"/><path fill="none" stroke="#c5c0c3" stroke-linecap="round" stroke-linejoin="round" stroke-width="2" opacity=".6" d="M426 22h14"/><path fill="none" stroke="#c5c0c3" stroke-linecap="round" stroke-linejoin="round" stroke-width="2" opacity=".6" d="M426 28h14"/><path fill="none" stroke="#fafafa" stroke-linecap="round" stroke-linejoin="round" stroke-width="2" opacity=".6" d="M426 24h14"/><path fill="none" stroke="#fafafa" stroke-linecap="round" stroke-linejoin="round" stroke-width="2" opacity=".6" d="M426 34h14"/><path fill="none" stroke="#fafafa" stroke-linecap="round" stroke-linejoin="round" stroke-width="2" opacity=".6" d="M426 40h14"/><path fill="none" stroke="#fafafa" stroke-linecap="round" stroke-linejoin="round" stroke-width="2" opacity=".6" d="M426 30h14"/><path fill="none" stroke="#c5c0c3" stroke-linecap="round" stroke-linejoin="round" stroke-width="2" opacity=".6" d="M426 32h14"/><path fill="none" stroke="#c5c0c3" stroke-linecap="round" stroke-linejoin="round" stroke-width="2" opacity=".6" d="M426 38h14"/><path fill="none" stroke="#938a8f" stroke-linecap="round" stroke-linejoin="round" stroke-width="2" d="M425 18h16v24h-16z"/><path fill="#ffdb6d" stroke="#dba758" stroke-linecap="round" stroke-linejoin="round" stroke-width="2" d="M425 42h16v262h-16z"/><path fill="#fff3ce" d="M433 327l-8-23 2-2 2 2 2-2 2 2 2-2 2 2 2-2 2 2-8 23z"/><path d="M427 4h12a2 2 0 0 1 2 2v12h-16V6a2 2 0 0 1 2-2z" fill="#ff7e6d" stroke="#bf4e45" stroke-linecap="round" stroke-linejoin="round" stroke-width="2"/><path fill="#dba758" opacity=".3" d="M436 43h4v261h-4z"/><path fill="#fff3ce" opacity=".4" d="M426 43h4v261h-4z"/><path fill="#fffdf5" d="M433 327l-8-23 2.833-.985 6.923 19.901L433 327z"/><path fill="#ffe38d" d="M433 327l-1.588-4.566 6.755-19.419L441 304l-8 23z"/><path fill="none" stroke="#dba758" stroke-linecap="round" stroke-linejoin="round" stroke-width="2" d="M433 327l-8-23 2-2 2 2 2-2 2 2 2-2 2 2 2-2 2 2-8 23z"/><path fill="#62535c" stroke="#62535c" stroke-linecap="round" stroke-linejoin="round" stroke-width="2" d="M435 321.25l-2 5.75-2.001-5.752 4.001.002z"/><path fill="#fff" opacity=".4" d="M426 19h4v22h-4z"/><path d="M427 5h3v12h-4V6a1 1 0 0 1 1-1z" fill="#fd9387"/><path fill="#938a8f" opacity=".4" d="M436 19h4v22h-4z"/><path fill="#bf4e45" opacity=".4" d="M436 5h4v12h-4z"/><path d="M236.792 279H86.322a7.996 7.996 0 0 0-7.739-6H8a8 8 0 0 0-8 8v32a8 8 0 0 0 8 8h70.583a8 8 0 0 0 8-8v-2h150.209a2 2 0 0 0 2-2v-28a2 2 0 0 0-2-2z" fill="#eaf5f5"/><path d="M228 269h10a2 2 0 0 1 2 2v28a2 2 0 0 1-2 2h-10" fill="none" stroke="#301d28" stroke-linejoin="round" stroke-width="2"/><rect x="64" y="269" width="176" height="32" rx="2" ry="2" transform="rotate(180 152 285)" fill="#ffdb6d" stroke="#dba758" stroke-miterlimit="10" stroke-width="2"/><g fill="none" stroke="#dba758" stroke-linecap="round" stroke-linejoin="round" stroke-width="2"><path d="M198.083 301v-6"/><path d="M230.083 301v-4"/><path d="M222.083 301v-4"/><path d="M206.083 301v-4"/><path d="M214.083 301v-4"/><path d="M158.083 301v-8"/><path d="M190.083 301v-4"/><path d="M182.083 301v-4"/><path d="M166.083 301v-4"/><path d="M174.083 301v-4"/><path d="M118.083 301v-6"/><path d="M150.083 301v-4"/><path d="M142.083 301v-4"/><path d="M126.083 301v-4"/><path d="M134.083 301v-4"/><path d="M78.083 301v-9"/><path d="M110.083 301v-4"/><path d="M102.083 301v-4"/><path d="M86.083 301v-4"/><path d="M94.083 301v-4"/></g><path fill="#553143" d="M240 269v32h-12v-32z"/><g fill="none" stroke="#dba758" stroke-linecap="round" stroke-linejoin="round" stroke-width="2"><path d="M198.083 269v6"/><path d="M222.083 269v4"/><path d="M206.083 269v4"/><path d="M214.083 269v4"/><path d="M158.083 269v8"/><path d="M190.083 269v4"/><path d="M182.083 269v4"/><path d="M166.083 269v4"/><path d="M174.083 269v4"/><path d="M118.083 269v6"/><path d="M150.083 269v4"/><path d="M142.083 269v4"/><path d="M126.083 269v4"/><path d="M134.083 269v4"/><path d="M78.083 269v9"/><path d="M110.083 269v4"/><path d="M102.083 269v4"/><path d="M86.083 269v4"/><path d="M94.083 269v4"/></g><path fill="#fff3ce" opacity=".4" d="M68 270h160v2H68z"/><path fill="#dba758" opacity=".2" d="M60 298h168v2H60z"/><path fill="#7f6371" opacity=".4" d="M228 270h12v2h-12z"/><path fill="#301d28" opacity=".4" d="M228 298h12v2h-12z"/><rect x="25.292" y="248" width="40" height="80" rx="8" ry="8" transform="rotate(90 45.292 288)" fill="#62535c" opacity=".1"/><rect x="16.292" y="245" width="48" height="80" rx="8" ry="8" transform="rotate(90 40.292 285)" fill="#fafafa"/><path d="M79.292 301h-61a2 2 0 0 1-2-2v-28a2 2 0 0 1 2-2h61a7 7 0 0 0-7-7h-63a8 8 0 0 0-8 8v30a8 8 0 0 0 8 8h63a7 7 0 0 0 7-7z" fill="#ecebec"/><path d="M3 305h74a2 2 0 0 1-2 2H5a2 2 0 0 1-2-2z" fill="#938a8f" opacity=".2"/><path d="M4.292 263h71a2 2 0 0 1 2 2h-75a2 2 0 0 1 2-2z" fill="#fff" opacity=".4"/><path d="M57.291 292a1.001 1.001 0 0 1-1-1v-12a1.001 1.001 0 0 1 1-1h21v14z" fill="#f1f0f1"/><path d="M77.292 279v12h-20v-12h20m2-2h-22a2 2 0 0 0-2 2v12a2 2 0 0 0 2 2h22v-16z" fill="#e8e6e7"/><path d="M73.291 292a1.001 1.001 0 0 1-1-1v-12a1.001 1.001 0 0 1 1-1h6v14z" fill="#c5c0c3"/><path d="M78.292 279v12h-5v-12h5m2-2h-7a2 2 0 0 0-2 2v12a2 2 0 0 0 2 2h7v-16z" fill="#938a8f"/><path d="M228 269h10a2 2 0 0 1 2 2v28a2 2 0 0 1-2 2h-10" fill="none" stroke="#301d28" stroke-miterlimit="10" stroke-width="2"/><path d="M72.292 263a6.007 6.007 0 0 1 6 6v32a6.007 6.007 0 0 1-6 6h-64a6.007 6.007 0 0 1-6-6v-32a6.007 6.007 0 0 1 6-6h64m0-2h-64a8 8 0 0 0-8 8v32a8 8 0 0 0 8 8h64a8 8 0 0 0 8-8v-32a8 8 0 0 0-8-8z" fill="#938a8f"/></svg>